<svg t="1729511877595" class="icon" viewBox="0 0 1014 1024" version="1.1" xmlns="http://www.w3.org/2000/svg" p-id="1605"
     xmlns:xlink="http://www.w3.org/1999/xlink" width="48" height="48">
  <path d="M96 176a16 16 0 0 1 16-16h800a16 16 0 0 1 16 16v544a16 16 0 0 1-16 16h-416a48 48 0 0 0-33.92 14.08L288 924.16v-140.16a48 48 0 0 0-48-48h-128a16 16 0 0 1-16-16v-544zM112 64A112 112 0 0 0 0 176v544C0 781.824 50.176 832 112 832H192v98.752a93.248 93.248 0 0 0 159.168 65.92L515.904 832h396.096A112 112 0 0 0 1024 720v-544A112 112 0 0 0 912 64H112z m321.92 222.08a48 48 0 0 1 0 67.84L339.84 448l94.08 94.08a48 48 0 0 1-67.84 67.84l-128-128a48 48 0 0 1 0-67.84l128-128a48 48 0 0 1 67.84 0z m156.16 0a48 48 0 0 0 0 67.84L684.16 448 590.08 542.08a48 48 0 0 0 67.84 67.84l128-128a48 48 0 0 0 0-67.84l-128-128a48 48 0 0 0-67.84 0z"
        fill="#fff" p-id="1606"></path>
</svg>
